<svg width="700" height="600" xmlns="http://www.w3.org/2000/svg">
  <!-- Title -->
  <text x="350" y="30" font-size="24" font-weight="bold" text-anchor="middle" fill="#333">
    Component Hierarchy - Three-Level Structure
  </text>
  
  <!-- Grandparent Container -->
  <rect x="50" y="60" width="600" height="500" fill="#e8f5e9" stroke="#2e7d32" stroke-width="3" rx="10"/>
  <text x="70" y="90" font-size="18" font-weight="bold" fill="#2e7d32">
    🟢 GRANDPARENT (composedEventDemo)
  </text>
  <text x="70" y="115" font-size="12" fill="#555">Light DOM - Shadow DOM Level 1</text>
  
  <!-- Shadow DOM Boundary #1 -->
  <line x1="70" y1="130" x2="630" y2="130" stroke="#ff9800" stroke-width="2" stroke-dasharray="5,5"/>
  <text x="350" y="125" font-size="11" fill="#ff9800" text-anchor="middle" font-weight="bold">Shadow DOM Boundary #1</text>
  
  <!-- Wrapper Container -->
  <rect x="100" y="150" width="540" height="360" fill="#fff3e0" stroke="#ff9800" stroke-width="2" rx="8"/>
  <text x="120" y="180" font-size="16" font-weight="bold" fill="#ff9800">
    🟠 WRAPPER (wrapperMiddle)
  </text>
  <text x="120" y="200" font-size="11" fill="#666">Shadow DOM Level 2</text>
  
  <!-- Shadow DOM Boundary #2 -->
  <line x1="120" y1="215" x2="620" y2="215" stroke="#2196f3" stroke-width="2" stroke-dasharray="5,5"/>
  <text x="350" y="210" font-size="11" fill="#2196f3" text-anchor="middle" font-weight="bold">Shadow DOM Boundary #2</text>
  
  <!-- Child Container -->
  <rect x="150" y="235" width="440" height="250" fill="#e3f2fd" stroke="#2196f3" stroke-width="2" rx="8"/>
  <text x="170" y="265" font-size="16" font-weight="bold" fill="#2196f3">
    🔵 CHILD (nonComposedEventChild)
  </text>
  <text x="170" y="285" font-size="11" fill="#666">Shadow DOM Level 3</text>
  
  <!-- Button -->
  <rect x="200" y="310" width="340" height="50" fill="#1976d2" stroke="#0d47a1" stroke-width="2" rx="4"/>
  <text x="370" y="345" font-size="14" font-weight="bold" fill="white" text-anchor="middle">
    [Dispatch Event Button]
  </text>
  
  <!-- Legend -->
  <text x="70" y="550" font-size="12" font-weight="bold" fill="#333">Legend:</text>
  <circle cx="85" cy="568" r="5" fill="#2e7d32"/>
  <text x="100" y="573" font-size="11" fill="#555">Grandparent (Outermost)</text>
  
  <circle cx="300" cy="568" r="5" fill="#ff9800"/>
  <text x="315" y="573" font-size="11" fill="#555">Wrapper (Middle)</text>
  
  <circle cx="520" cy="568" r="5" fill="#2196f3"/>
  <text x="535" y="573" font-size="11" fill="#555">Child (Innermost)</text>
</svg>